<?xml version="1.0" encoding="UTF-8"?>
<svg width="144px" height="120px" viewBox="0 0 144 120" version="1.1" xmlns="http://www.w3.org/2000/svg" xmlns:xlink="http://www.w3.org/1999/xlink">
    <!-- Generator: sketchtool 50.2 (55047) - http://www.bohemiancoding.com/sketch -->
    <title>1063CFE6-F824-4A10-ADBD-B6A0A66FFC6E</title>
    <desc>Created with sketchtool.</desc>
    <defs></defs>
    <g id="iOS-App" stroke="none" stroke-width="1" fill="none" fill-rule="evenodd">
        <g id="Login-or-Signup" transform="translate(-116.000000, -209.000000)">
            <g id="LOGO-Copy" transform="translate(116.000000, 209.000000)">
                <g id="Group" transform="translate(1.194030, 15.522388)">
                    <path d="M67.2081153,63.2835821 L0.42127014,63.2835821 L33.8146927,29.8901595 L67.2081153,63.2835821 Z" id="Combined-Shape" fill="#48C1C2"></path>
                    <path d="M142.686567,62.7744396 L142.686567,63.2835821 L75.6511813,63.2835821 L46.4792918,34.1116925 L80.251556,0.339428355 L142.686567,62.7744396 Z" id="Combined-Shape" fill="#FFFFFF"></path>
                    <path d="M142.686567,20.5591093 L142.686567,54.3313735 L105.453468,17.0982748 L122.339601,0.212142722 L142.686567,20.5591093 Z" id="Combined-Shape" fill="#48C1C2"></path>
                </g>
                <circle id="Oval-3-Copy-2" fill="#F06543" cx="13.1343284" cy="11.9402985" r="11.9402985"></circle>
                <path d="M16.2819158,90.9325373 C18.3439933,90.9325373 20.3796033,91.2233387 22.388807,91.8049503 C24.3980106,92.3865619 26.129601,93.1664385 27.5836299,94.1446034 L23.856047,100.529081 C22.4813287,99.6831 20.9347939,98.9494873 19.216396,98.3282204 C17.4979981,97.7069535 16.0704274,97.3963247 14.9336412,97.3963247 C14.1669713,97.3963247 13.5655411,97.5417254 13.1293324,97.8325312 C12.6931237,98.123337 12.4750227,98.5463209 12.4750227,99.1014956 C12.4750227,99.8152916 12.8451336,100.370458 13.5853665,100.767011 C14.3255994,101.163565 15.4888052,101.599767 17.0750186,102.075631 C18.8462902,102.630806 20.2936883,103.159535 21.4172561,103.661836 C22.5408239,104.164137 23.5189742,104.937405 24.3517363,105.981662 C25.1844983,107.025919 25.6008731,108.394008 25.6008731,110.085969 C25.6008731,112.20092 25.0457067,113.991992 23.9353573,115.45924 C22.8250079,116.926487 21.3379551,118.023602 19.4741544,118.750616 C17.6103536,119.477631 15.541698,119.841132 13.2681254,119.841132 C10.8888053,119.841132 8.53595732,119.437976 6.20951097,118.631651 C3.88306462,117.825326 1.91354583,116.721602 0.300895522,115.320447 L4.06813356,109.01528 C5.3371043,110.231377 6.93651217,111.2624 8.86640516,112.108381 C10.7962982,112.954361 12.4882338,113.377345 13.9422627,113.377345 C14.8939908,113.377345 15.6408217,113.19229 16.182778,112.822173 C16.7247342,112.452057 16.9957083,111.923327 16.9957083,111.235968 C16.9957083,110.522172 16.6255974,109.973614 15.8853645,109.590279 C15.1451315,109.206944 13.9687076,108.79057 12.3560572,108.341143 C10.6112225,107.838842 9.17043357,107.336548 8.03364728,106.834247 C6.896861,106.331946 5.9121016,105.578506 5.07933956,104.573905 C4.24657751,103.569303 3.83020274,102.247478 3.83020274,100.608391 C3.83020274,98.6520609 4.35232349,96.9469071 5.39658066,95.4928781 C6.44083783,94.0388491 7.90145411,92.9152981 9.77847332,92.1221914 C11.6554925,91.3290847 13.823285,90.9325373 16.2819158,90.9325373 Z M51.1850455,91.5273644 L59.4333141,91.5273644 L53.8815949,119.325616 L45.6333263,119.325616 L47.6953935,108.975625 L37.8212643,108.975625 L35.7591971,119.325616 L27.5109286,119.325616 L33.0626478,91.5273644 L41.3109164,91.5273644 L39.0902287,102.630803 L48.9643578,102.630803 L51.1850455,91.5273644 Z M86.6270186,99.4583918 C86.6270186,101.94346 86.0520248,104.131079 84.9020201,106.021317 C83.7520154,107.911555 82.1063436,109.358953 79.9649555,110.363555 L83.7321935,119.325616 L74.4132363,119.325616 L72.1925486,111.87045 L67.8304835,111.87045 L66.3235883,119.325616 L58.0753198,119.325616 L63.627039,91.5273644 L76.633924,91.5273644 C79.8592246,91.5273644 82.3310368,92.2147132 84.0494346,93.5894315 C85.7678325,94.9641498 86.6270186,96.9204503 86.6270186,99.4583918 Z M69.0994479,105.485973 L73.8580644,105.485973 C75.3120933,105.485973 76.4686899,105.062989 77.3278889,104.217008 C78.1870878,103.371028 78.6166808,102.234259 78.6166808,100.806666 C78.6166808,99.8549384 78.3390977,99.1279349 77.783923,98.6256339 C77.2287483,98.123333 76.4224352,97.8721863 75.3649596,97.8721863 L70.6063431,97.8721863 L69.0994479,105.485973 Z M113.627113,97.8721863 L99.1133324,97.8721863 L98.2409194,102.234251 L111.406425,102.234251 L110.137461,108.579073 L96.971955,108.579073 L96.0598869,112.980794 L110.970218,112.980794 L109.701254,119.325616 L86.5823091,119.325616 L92.1340283,91.5273644 L114.896077,91.5273644 L113.627113,97.8721863 Z M130.554802,91.5273644 C133.304239,91.5273644 135.683523,92.0494851 137.692727,93.0937423 C139.70193,94.1379995 141.21542,95.6052249 142.23324,97.4954625 C143.25106,99.3857002 143.693871,101.57332 143.561687,104.058388 C143.403066,107.045756 142.550489,109.696015 141.003931,112.009243 C139.457373,114.322471 137.382108,116.120152 134.778074,117.402341 C132.17404,118.684531 129.259417,119.325616 126.034116,119.325616 L113.463438,119.325616 L118.975502,91.5273644 L130.554802,91.5273644 Z M135.075488,104.653215 C135.181235,102.670448 134.711987,101.07104 133.66773,99.8549432 C132.623473,98.6388462 131.189293,98.0308069 129.365148,98.0308069 L125.954806,98.0308069 L123.020326,112.861828 L127.541012,112.861828 C128.889293,112.861828 130.11859,112.518154 131.228939,111.830795 C132.339289,111.143435 133.238129,110.178503 133.925489,108.93597 C134.612848,107.693436 134.996177,106.265865 135.075488,104.653215 Z" id="SHRED" fill="#FFFFFF"></path>
            </g>
        </g>
    </g>
</svg>